<?xml version="1.0" encoding="UTF-8" standalone="no"?>
<!DOCTYPE svg PUBLIC "-//W3C//DTD SVG 1.1//EN"
 "http://www.w3.org/Graphics/SVG/1.1/DTD/svg11.dtd">
<!-- Generated by graphviz version 2.43.0 (0)
 -->
<!-- Title: G Pages: 1 -->
<svg width="2435pt" height="157pt"
 viewBox="0.00 0.00 2435.00 157.00" xmlns="http://www.w3.org/2000/svg" xmlns:xlink="http://www.w3.org/1999/xlink">
<g id="graph0" class="graph" transform="scale(1 1) rotate(0) translate(4 153)">
<title>G</title>
<polygon fill="white" stroke="transparent" points="-4,4 -4,-153 2431,-153 2431,4 -4,4"/>
<g id="clust1" class="cluster">
<title>cluster_0</title>
<polygon fill="none" stroke="lightgrey" points="0,-8 0,-141 347,-141 347,-8 0,-8"/>
<text text-anchor="middle" x="173.5" y="-125.8" font-family="Times,serif" font-size="14.00">Hardware Layer (Hitachi HUA723020ALA640)</text>
</g>
<g id="clust2" class="cluster">
<title>cluster_1</title>
<polygon fill="none" stroke="lightblue" points="421,-64 421,-141 635,-141 635,-64 421,-64"/>
<text text-anchor="middle" x="528" y="-125.8" font-family="Times,serif" font-size="14.00">Linux Kernel Layer</text>
</g>
<g id="clust3" class="cluster">
<title>cluster_2</title>
<polygon fill="none" stroke="lightgreen" points="723,-8 723,-85 1175,-85 1175,-8 723,-8"/>
<text text-anchor="middle" x="949" y="-69.8" font-family="Times,serif" font-size="14.00">Python Feature Collector</text>
</g>
<g id="clust4" class="cluster">
<title>cluster_3</title>
<polygon fill="none" stroke="lightyellow" points="1302,-12 1302,-103 2030,-103 2030,-12 1302,-12"/>
<text text-anchor="middle" x="1666" y="-87.8" font-family="Times,serif" font-size="14.00">AI Training &amp; Inference</text>
</g>
<g id="clust5" class="cluster">
<title>cluster_4</title>
<polygon fill="none" stroke="salmon" points="2168,-24 2168,-101 2419,-101 2419,-24 2168,-24"/>
<text text-anchor="middle" x="2293.5" y="-85.8" font-family="Times,serif" font-size="14.00">Output</text>
</g>
<!-- disk -->
<g id="node1" class="node">
<title>disk</title>
<polygon fill="#ffd700" stroke="black" points="234.5,-110 112.5,-110 112.5,-72 234.5,-72 234.5,-110"/>
<text text-anchor="middle" x="173.5" y="-94.8" font-family="Arial" font-size="14.00">Physical Platters</text>
<text text-anchor="middle" x="173.5" y="-79.8" font-family="Arial" font-size="14.00">(2TB, 7200 RPM)</text>
</g>
<!-- diskstats -->
<g id="node3" class="node">
<title>diskstats</title>
<polygon fill="#add8e6" stroke="black" points="627,-110 429,-110 429,-72 627,-72 627,-110"/>
<text text-anchor="middle" x="528" y="-94.8" font-family="Arial" font-size="14.00">/proc/diskstats</text>
<text text-anchor="middle" x="528" y="-79.8" font-family="Arial" font-size="14.00">(I/O Throughput, Latency, Util)</text>
</g>
<!-- disk&#45;&gt;diskstats -->
<g id="edge1" class="edge">
<title>disk&#45;&gt;diskstats</title>
<path fill="none" stroke="black" d="M234.7,-91C284.98,-91 357.94,-91 418.39,-91"/>
<polygon fill="black" stroke="black" points="418.75,-94.5 428.75,-91 418.75,-87.5 418.75,-94.5"/>
<text text-anchor="middle" x="384" y="-94.8" font-family="Times,serif" font-size="14.00">I/O Ops</text>
</g>
<!-- smart -->
<g id="node2" class="node">
<title>smart</title>
<polygon fill="#ffd700" stroke="black" points="254,-54 93,-54 93,-16 254,-16 254,-54"/>
<text text-anchor="middle" x="173.5" y="-38.8" font-family="Arial" font-size="14.00">SMART Controller</text>
<text text-anchor="middle" x="173.5" y="-23.8" font-family="Arial" font-size="14.00">(Temp, Realloc Sectors)</text>
</g>
<!-- collector -->
<g id="node4" class="node">
<title>collector</title>
<polygon fill="#90ee90" stroke="black" points="892,-54 731,-54 731,-16 892,-16 892,-54"/>
<text text-anchor="middle" x="811.5" y="-38.8" font-family="Arial" font-size="14.00">collect_disk_features.py</text>
<text text-anchor="middle" x="811.5" y="-23.8" font-family="Arial" font-size="14.00">(1Hz Polling Loop)</text>
</g>
<!-- smart&#45;&gt;collector -->
<g id="edge2" class="edge">
<title>smart&#45;&gt;collector</title>
<path fill="none" stroke="black" d="M254.08,-35C372.9,-35 595.99,-35 720.56,-35"/>
<polygon fill="black" stroke="black" points="720.83,-38.5 730.83,-35 720.83,-31.5 720.83,-38.5"/>
<text text-anchor="middle" x="528" y="-38.8" font-family="Times,serif" font-size="14.00">Subprocess (smartctl)</text>
</g>
<!-- diskstats&#45;&gt;collector -->
<g id="edge3" class="edge">
<title>diskstats&#45;&gt;collector</title>
<path fill="none" stroke="black" d="M624.7,-71.96C655.91,-65.75 690.42,-58.89 721.15,-52.78"/>
<polygon fill="black" stroke="black" points="721.85,-56.2 730.98,-50.82 720.49,-49.34 721.85,-56.2"/>
<text text-anchor="middle" x="679" y="-69.8" font-family="Times,serif" font-size="14.00">File Read</text>
</g>
<!-- monitor -->
<g id="node8" class="node">
<title>monitor</title>
<polygon fill="#ffffe0" stroke="black" points="2022,-70 1866,-70 1866,-32 2022,-32 2022,-70"/>
<text text-anchor="middle" x="1944" y="-54.8" font-family="Arial" font-size="14.00">monitor_disk_health.py</text>
<text text-anchor="middle" x="1944" y="-39.8" font-family="Arial" font-size="14.00">(Real&#45;time Inference)</text>
</g>
<!-- diskstats&#45;&gt;monitor -->
<g id="edge8" class="edge">
<title>diskstats&#45;&gt;monitor</title>
<path fill="none" stroke="black" d="M627.31,-97.25C681.36,-100.16 749.6,-103 810.5,-103 810.5,-103 810.5,-103 1692.5,-103 1755.38,-103 1825.31,-87.1 1875.28,-72.88"/>
<polygon fill="black" stroke="black" points="1876.36,-76.21 1884.99,-70.07 1874.42,-69.49 1876.36,-76.21"/>
<text text-anchor="middle" x="1238.5" y="-106.8" font-family="Times,serif" font-size="14.00">Live Telemetry</text>
</g>
<!-- csv_file -->
<g id="node5" class="node">
<title>csv_file</title>
<polygon fill="#90ee90" stroke="black" points="1161,-54 1018,-54 1018,-16 1167,-16 1167,-48 1161,-54"/>
<polyline fill="none" stroke="black" points="1161,-54 1161,-48 "/>
<polyline fill="none" stroke="black" points="1167,-48 1161,-48 "/>
<text text-anchor="middle" x="1092.5" y="-38.8" font-family="Arial" font-size="14.00">disk_features.csv</text>
<text text-anchor="middle" x="1092.5" y="-23.8" font-family="Arial" font-size="14.00">(Time&#45;Series Dataset)</text>
</g>
<!-- collector&#45;&gt;csv_file -->
<g id="edge4" class="edge">
<title>collector&#45;&gt;csv_file</title>
<path fill="none" stroke="black" d="M892.08,-35C928.15,-35 970.81,-35 1007.41,-35"/>
<polygon fill="black" stroke="black" points="1007.56,-38.5 1017.56,-35 1007.56,-31.5 1007.56,-38.5"/>
<text text-anchor="middle" x="955" y="-38.8" font-family="Times,serif" font-size="14.00">Append Row</text>
</g>
<!-- trainer -->
<g id="node6" class="node">
<title>trainer</title>
<polygon fill="#ffffe0" stroke="black" points="1504,-60 1310,-60 1310,-22 1504,-22 1504,-60"/>
<text text-anchor="middle" x="1407" y="-44.8" font-family="Arial" font-size="14.00">train_disk_model.py</text>
<text text-anchor="middle" x="1407" y="-29.8" font-family="Arial" font-size="14.00">(PyTorch LSTM Autoencoder)</text>
</g>
<!-- csv_file&#45;&gt;trainer -->
<g id="edge5" class="edge">
<title>csv_file&#45;&gt;trainer</title>
<path fill="none" stroke="black" d="M1167.16,-36.41C1206.67,-37.17 1256.06,-38.12 1299.66,-38.96"/>
<polygon fill="black" stroke="black" points="1299.67,-42.46 1309.74,-39.15 1299.81,-35.46 1299.67,-42.46"/>
<text text-anchor="middle" x="1238.5" y="-41.8" font-family="Times,serif" font-size="14.00">Training Set</text>
</g>
<!-- model_pth -->
<g id="node7" class="node">
<title>model_pth</title>
<path fill="#ffffe0" stroke="black" d="M1746,-67.48C1746,-70.11 1721.57,-72.25 1691.5,-72.25 1661.43,-72.25 1637,-70.11 1637,-67.48 1637,-67.48 1637,-24.52 1637,-24.52 1637,-21.89 1661.43,-19.75 1691.5,-19.75 1721.57,-19.75 1746,-21.89 1746,-24.52 1746,-24.52 1746,-67.48 1746,-67.48"/>
<path fill="none" stroke="black" d="M1746,-67.48C1746,-64.84 1721.57,-62.7 1691.5,-62.7 1661.43,-62.7 1637,-64.84 1637,-67.48"/>
<text text-anchor="middle" x="1691.5" y="-49.8" font-family="Arial" font-size="14.00">disk_model.pth</text>
<text text-anchor="middle" x="1691.5" y="-34.8" font-family="Arial" font-size="14.00">(Weight Matrix)</text>
</g>
<!-- trainer&#45;&gt;model_pth -->
<g id="edge6" class="edge">
<title>trainer&#45;&gt;model_pth</title>
<path fill="none" stroke="black" d="M1504.04,-42.7C1544.36,-43.41 1590.19,-44.22 1626.32,-44.86"/>
<polygon fill="black" stroke="black" points="1626.66,-48.37 1636.72,-45.05 1626.78,-41.37 1626.66,-48.37"/>
<text text-anchor="middle" x="1570.5" y="-47.8" font-family="Times,serif" font-size="14.00">Save Weights</text>
</g>
<!-- model_pth&#45;&gt;monitor -->
<g id="edge7" class="edge">
<title>model_pth&#45;&gt;monitor</title>
<path fill="none" stroke="black" d="M1746.24,-47.07C1778.04,-47.71 1819.09,-48.53 1855.46,-49.25"/>
<polygon fill="black" stroke="black" points="1855.51,-52.75 1865.58,-49.45 1855.65,-45.76 1855.51,-52.75"/>
<text text-anchor="middle" x="1806" y="-52.8" font-family="Times,serif" font-size="14.00">Load Model</text>
</g>
<!-- score -->
<g id="node9" class="node">
<title>score</title>
<polygon fill="#fa8072" stroke="black" points="2411,-70 2176,-70 2176,-32 2411,-32 2411,-70"/>
<text text-anchor="middle" x="2293.5" y="-54.8" font-family="Arial" font-size="14.00">Anomaly Score (0&#45;100)</text>
<text text-anchor="middle" x="2293.5" y="-39.8" font-family="Arial" font-size="14.00">Health Status (NORMAL/CRITICAL)</text>
</g>
<!-- monitor&#45;&gt;score -->
<g id="edge9" class="edge">
<title>monitor&#45;&gt;score</title>
<path fill="none" stroke="black" d="M2022.12,-51C2064.31,-51 2117.64,-51 2165.77,-51"/>
<polygon fill="black" stroke="black" points="2165.96,-54.5 2175.96,-51 2165.96,-47.5 2165.96,-54.5"/>
<text text-anchor="middle" x="2099" y="-54.8" font-family="Times,serif" font-size="14.00">Loss Calculation</text>
</g>
</g>
</svg>
